# Alias OBJ Model File
# Exported from SketchUp, (c) 2000-2012 Trimble Navigation Limited
# File units = inches

mtllib dial.mtl

g Mesh1 Model

usemtl FrontColor
v 15.0548 -5.68434e-014 -14.6278
vt 7.75306 -5.68434e-014
vn 0.866025 0 -0.5
v 15.0236 -5.68434e-014 -14.7031
vt 7.83464 -5.68434e-014
vn 0.965926 0 -0.258819
v 15.0236 0.1875 -14.7031
vt 7.83464 0.1875
v 15.0548 0.1875 -14.6278
vt 7.75306 0.1875
f 1/1/1 2/2/2 3/3/2 4/4/1 

v 15.1475 -5.68434e-014 -14.1199
vt -15.1475 14.1199
vn 0 -1 -0
vt -15.0236 14.7031
vt -15.0548 14.6278
f 5/5/3 2/6/3 1/7/3

v 14.9817 -5.68434e-014 -14.1886
vt -14.9817 14.1886
f 6/8/3 2/6/3 5/5/3

v 15.0129 -5.68434e-014 -14.784
vt -15.0129 14.784
f 2/6/3 6/8/3 7/9/3

v 14.9817 -5.68434e-014 -15.3794
vt -14.9817 15.3794
f 6/8/3 8/10/3 7/9/3

v 14.8393 -5.68434e-014 -14.2979
vt -14.8393 14.2979
f 9/11/3 8/10/3 6/8/3

v 14.8393 -5.68434e-014 -15.2701
vt -14.8393 15.2701
f 9/11/3 10/12/3 8/10/3

v 14.73 -5.68434e-014 -14.4403
vt -14.73 14.4403
f 11/13/3 10/12/3 9/11/3

v 14.73 -5.68434e-014 -15.1278
vt -14.73 15.1278
f 11/13/3 12/14/3 10/12/3

v 14.6614 -5.68434e-014 -14.6061
vt -14.6614 14.6061
f 13/15/3 12/14/3 11/13/3

v 14.6614 -5.68434e-014 -14.9619
vt -14.6614 14.9619
f 13/15/3 14/16/3 12/14/3

v 14.6379 -5.68434e-014 -14.784
vt -14.6379 14.784
f 14/16/3 13/15/3 15/17/3

usemtl Color_H01
vt -12.7469 -5.68434e-014
vn -1 0 -0
vt -12.5674 -5.68434e-014
vn -0.965926 0 0.258819
v 14.6614 0.1875 -14.6061
vt -12.5674 0.1875
v 14.6379 0.1875 -14.784
vt -12.7469 0.1875
f 15/18/4 13/19/5 16/20/5 17/21/4 

vt -7.88359 -5.68434e-014
vt -7.70412 -5.68434e-014
vn -0.866025 0 0.5
v 14.73 0.1875 -14.4403
vt -7.70412 0.1875
vt -7.88359 0.1875
f 13/22/5 11/23/6 18/24/6 16/25/5 

vt -2.48914 -5.68434e-014
vt -2.30967 -5.68434e-014
vn -0.707107 0 0.707107
v 14.8393 0.1875 -14.2979
vt -2.30967 0.1875
vt -2.48914 0.1875
f 11/26/6 9/27/7 19/28/7 18/29/6 

vt 3.06882 -5.68434e-014
vt 3.24829 -5.68434e-014
vn -0.5 0 0.866025
v 14.9817 0.1875 -14.1886
vt 3.24829 0.1875
vt 3.06882 0.1875
f 9/30/7 6/31/8 20/32/8 19/33/7 

vt 8.41153 -5.68434e-014
vt 8.591 -5.68434e-014
vn -0.258819 0 0.965926
v 15.1475 0.1875 -14.1199
vt 8.591 0.1875
vt 8.41153 0.1875
f 6/34/8 5/35/9 21/36/9 20/37/8 

vt 13.1749 -5.68434e-014
v 15.3254 -5.68434e-014 -14.0965
vt 13.3544 -5.68434e-014
vn 0 0 1
v 15.3254 0.1875 -14.0965
vt 13.3544 0.1875
vt 13.1749 0.1875
f 5/38/9 22/39/10 23/40/10 21/41/9 

usemtl FrontColor
v 15.1692 -5.68434e-014 -14.5134
vt -15.1692 14.5134
vt -15.3254 14.0965
f 5/5/3 24/42/3 22/43/3

v 15.1045 -5.68434e-014 -14.563
vt -15.1045 14.563
f 5/5/3 25/44/3 24/42/3

f 5/5/3 1/7/3 25/44/3

vt 2.35862 -5.68434e-014
vn 0.707107 0 -0.707107
vt 2.4402 -5.68434e-014
vt 2.4402 0.1875
v 15.1045 0.1875 -14.563
vt 2.35862 0.1875
f 25/45/11 1/46/1 4/47/1 26/48/11 

usemtl Color_H01
vt 15.0548 14.6278
vn 0 1 -0
vt 15.1475 14.1199
vt 15.1045 14.563
f 4/49/12 21/50/12 26/51/12

vt 15.0236 14.7031
f 3/52/12 21/50/12 4/49/12

vt 14.9817 14.1886
f 3/52/12 20/53/12 21/50/12

v 15.0129 0.1875 -14.784
vt 15.0129 14.784
f 27/54/12 20/53/12 3/52/12

v 14.9817 0.1875 -15.3794
vt 14.9817 15.3794
f 28/55/12 20/53/12 27/54/12

v 14.8393 0.1875 -15.2701
vt 14.8393 15.2701
f 29/56/12 20/53/12 28/55/12

vt 14.8393 14.2979
f 29/56/12 19/57/12 20/53/12

v 14.73 0.1875 -15.1278
vt 14.73 15.1278
f 30/58/12 19/57/12 29/56/12

vt 14.73 14.4403
f 30/58/12 18/59/12 19/57/12

v 14.6614 0.1875 -14.9619
vt 14.6614 14.9619
f 31/60/12 18/59/12 30/58/12

vt 14.6614 14.6061
f 31/60/12 16/61/12 18/59/12

vt 14.6379 14.784
f 16/61/12 31/60/12 17/62/12

vt -16.7476 -5.68434e-014
vn -0.965926 0 -0.258819
vt -16.5682 -5.68434e-014
vt -16.5682 0.1875
vt -16.7476 0.1875
f 14/63/13 15/64/4 17/65/4 31/66/13 

vt -19.6132 -5.68434e-014
vn -0.866025 0 -0.5
vt -19.4337 -5.68434e-014
vt -19.4337 0.1875
vt -19.6132 0.1875
f 12/67/14 14/68/13 31/69/13 30/70/14 

vt -21.1482 -5.68434e-014
vn -0.707107 0 -0.707107
vt -20.9687 -5.68434e-014
vt -20.9687 0.1875
vt -21.1482 0.1875
f 10/71/15 12/72/14 30/73/14 29/74/15 

vt -21.2482 -5.68434e-014
vn -0.5 0 -0.866025
vt -21.0687 -5.68434e-014
vt -21.0687 0.1875
vt -21.2482 0.1875
f 8/75/16 10/76/15 29/77/15 28/78/16 

v 15.1475 -5.68434e-014 -15.4481
vt -19.9062 -5.68434e-014
vn -0.258819 0 -0.965926
vt -19.7267 -5.68434e-014
vt -19.7267 0.1875
v 15.1475 0.1875 -15.4481
vt -19.9062 0.1875
f 32/79/17 8/80/16 28/81/16 33/82/17 

usemtl FrontColor
v 15.0236 -5.68434e-014 -14.8649
vt -15.0236 14.8649
vt -15.1475 15.4481
f 34/83/3 8/10/3 32/84/3

f 7/9/3 8/10/3 34/83/3

vt 16.6171 -5.68434e-014
vn 1 0 -1.39975e-015
vt 16.6987 -5.68434e-014
vn 0.965926 0 0.258819
v 15.0236 0.1875 -14.8649
vt 16.6987 0.1875
vt 16.6171 0.1875
f 7/85/18 34/86/19 35/87/19 27/88/18 

vt 19.4826 -5.68434e-014
v 15.0548 -5.68434e-014 -14.9403
vt 19.5642 -5.68434e-014
vn 0.866025 0 0.5
v 15.0548 0.1875 -14.9403
vt 19.5642 0.1875
vt 19.4826 0.1875
f 34/89/19 36/90/20 37/91/20 35/92/19 

vt -15.0548 14.9403
f 34/83/3 32/84/3 36/93/3

v 15.1045 -5.68434e-014 -15.005
vt -15.1045 15.005
f 36/93/3 32/84/3 38/94/3

v 15.1692 -5.68434e-014 -15.0546
vt -15.1692 15.0546
f 38/94/3 32/84/3 39/95/3

v 15.3254 -5.68434e-014 -15.4715
vt -15.3254 15.4715
f 39/95/3 32/84/3 40/96/3

usemtl Color_H01
vt -17.2138 -5.68434e-014
vn 0 0 -1
vt -17.0343 -5.68434e-014
vt -17.0343 0.1875
v 15.3254 0.1875 -15.4715
vt -17.2138 0.1875
f 40/97/21 32/98/17 33/99/17 41/100/21 

vt 15.1475 15.4481
v 15.1692 0.1875 -15.0546
vt 15.1692 15.0546
vt 15.3254 15.4715
f 33/101/12 42/102/12 41/103/12

v 15.1045 0.1875 -15.005
vt 15.1045 15.005
f 33/101/12 43/104/12 42/102/12

vt 15.0548 14.9403
f 33/101/12 37/105/12 43/104/12

vt 15.0236 14.8649
f 33/101/12 35/106/12 37/105/12

f 28/55/12 35/106/12 33/101/12

f 35/106/12 28/55/12 27/54/12

usemtl FrontColor
v 15.0129 0.375 -14.784
vt 16.6171 0.375
vn 1 4.39929e-019 -1.42775e-015
vn 0.965926 3.23056e-018 0.258819
v 15.0236 0.375 -14.8649
vt 16.6987 0.375
f 44/107/22 27/88/22 35/87/23 45/108/23 

v 15.0236 0.375 -14.7031
vt 12.6164 0.375
vn 0.965926 -1.35582e-018 -0.258819
vt 12.6164 0.1875
vt 12.6979 0.1875
vt 12.6979 0.375
f 46/109/24 3/110/24 27/111/22 44/112/22 

v 15.0548 0.375 -14.6278
vt 7.75306 0.375
vn 0.866025 4.66419e-018 -0.5
vt 7.83464 0.375
f 47/113/25 4/4/25 3/3/24 46/114/24 

v 15.1045 0.375 -14.563
vt 2.35862 0.375
vn 0.707107 4.16437e-018 -0.707107
vt 2.4402 0.375
f 48/115/26 26/48/26 4/47/25 47/116/25 

v 15.1692 0.375 -14.5134
vt -3.19934 0.375
vn 0.5 -2.05349e-018 -0.866025
v 15.1692 0.1875 -14.5134
vt -3.19934 0.1875
vt -3.11776 0.1875
vt -3.11776 0.375
f 49/117/27 50/118/27 26/119/26 48/120/26 

v 15.2446 0.375 -14.4822
vt -8.54205 0.375
vn 0.258819 1.44196e-019 -0.965926
v 15.2446 0.1875 -14.4822
vt -8.54205 0.1875
vt -8.46047 0.1875
vt -8.46047 0.375
f 51/121/28 52/122/28 50/123/27 49/124/27 

v 15.3254 0.375 -14.4715
vt -13.3054 0.375
v 15.3254 0.1875 -14.4715
vt -13.3054 0.1875
vt -13.2238 0.1875
vt -13.2238 0.375
f 53/125/21 54/126/21 52/127/28 51/128/28 

v 15.4063 0.375 -14.4822
vt -17.1648 0.375
vn -0.258819 -1.44196e-019 -0.965926
v 15.4063 0.1875 -14.4822
vt -17.1648 0.1875
vt -17.0832 0.1875
vt -17.0832 0.375
f 55/129/29 56/130/29 54/131/21 53/132/21 

v 15.4817 0.375 -14.5134
vt -19.8572 0.375
vn -0.5 2.05349e-018 -0.866025
v 15.4817 0.1875 -14.5134
vt -19.8572 0.1875
vt -19.7757 0.1875
vt -19.7757 0.375
f 57/133/30 58/134/30 56/135/29 55/136/29 

v 15.5464 0.375 -14.563
vt -21.1992 0.375
v 15.5464 0.1875 -14.563
vt -21.1992 0.1875
vt -21.1176 0.1875
vt -21.1176 0.375
f 59/137/15 60/138/15 58/139/30 57/140/30 

v 15.5961 0.375 -14.6278
vt -21.0993 0.375
vn -0.866025 -7.86781e-019 -0.5
v 15.5961 0.1875 -14.6278
vt -21.0993 0.1875
vt -21.0177 0.1875
vt -21.0177 0.375
f 61/141/31 62/142/31 60/143/15 59/144/15 

v 15.6273 0.375 -14.7031
vt -19.5642 0.375
vn -0.965926 -2.0355e-019 -0.258819
v 15.6273 0.1875 -14.7031
vt -19.5642 0.1875
vt -19.4826 0.1875
vt -19.4826 0.375
f 63/145/32 64/146/32 62/147/31 61/148/31 

v 15.6379 0.375 -14.784
vt -16.6987 0.375
vn -1 -9.29316e-019 -0
v 15.6379 0.1875 -14.784
vt -16.6987 0.1875
vt -16.6171 0.1875
vt -16.6171 0.375
f 65/149/33 66/150/33 64/151/32 63/152/32 

v 15.6273 0.375 -14.8649
vt -12.6979 0.375
vn -0.965926 -3.29783e-020 0.258819
v 15.6273 0.1875 -14.8649
vt -12.6979 0.1875
vt -12.6164 0.1875
vt -12.6164 0.375
f 67/153/34 68/154/34 66/155/33 65/156/33 

v 15.5961 0.375 -14.9403
vt -7.83464 0.375
vn -0.866025 5.64394e-018 0.5
v 15.5961 0.1875 -14.9403
vt -7.83464 0.1875
vt -7.75306 0.1875
vt -7.75306 0.375
f 69/157/35 70/158/35 68/159/34 67/160/34 

v 15.5464 0.375 -15.005
vt -2.4402 0.375
vn -0.707107 7.35981e-018 0.707107
v 15.5464 0.1875 -15.005
vt -2.4402 0.1875
vt -2.35862 0.1875
vt -2.35862 0.375
f 71/161/36 72/162/36 70/163/35 69/164/35 

v 15.4817 0.375 -15.0546
vt 3.11776 0.375
vn -0.5 -2.92868e-019 0.866025
v 15.4817 0.1875 -15.0546
vt 3.11776 0.1875
vt 3.19934 0.1875
vt 3.19934 0.375
f 73/165/37 74/166/37 72/167/36 71/168/36 

v 15.4063 0.375 -15.0859
vt 8.46047 0.375
vn -0.258819 -2.21993e-018 0.965926
v 15.4063 0.1875 -15.0859
vt 8.46047 0.1875
vt 8.54205 0.1875
vt 8.54205 0.375
f 75/169/38 76/170/38 74/171/37 73/172/37 

v 15.3254 0.375 -15.0965
vt 13.2238 0.375
vn 1.41375e-015 -9.29316e-019 1
v 15.3254 0.1875 -15.0965
vt 13.2238 0.1875
vt 13.3054 0.1875
vt 13.3054 0.375
f 77/173/39 78/174/39 76/175/38 75/176/38 

v 15.2446 0.375 -15.0859
vt 17.0832 0.375
vn 0.258819 -1.44196e-019 0.965926
v 15.2446 0.1875 -15.0859
vt 17.0832 0.1875
vt 17.1648 0.1875
vt 17.1648 0.375
f 79/177/40 80/178/40 78/179/39 77/180/39 

v 15.1692 0.375 -15.0546
vt 19.7757 0.375
vn 0.5 -1.14194e-018 0.866025
vt 19.7757 0.1875
vt 19.8572 0.1875
vt 19.8572 0.375
f 81/181/41 42/182/41 80/183/40 79/184/40 

v 15.1045 0.375 -15.005
vt 21.1176 0.375
vn 0.707107 -4.16437e-018 0.707107
vt 21.1176 0.1875
vt 21.1992 0.1875
vt 21.1992 0.375
f 82/185/42 43/186/42 42/187/41 81/188/41 

v 15.0548 0.375 -14.9403
vt 21.0177 0.375
vn 0.866025 -3.39459e-020 0.5
vt 21.0177 0.1875
vt 21.0993 0.1875
vt 21.0993 0.375
f 83/189/43 37/190/43 43/191/42 82/192/42 

vt 19.4826 0.375
vt 19.5642 0.375
f 45/193/23 35/92/23 37/91/43 83/194/43 

vt -15.4063 14.4822
vt -15.3254 14.4715
vt -15.2446 14.4822
vt -15.2446 15.0859
vt -15.3254 15.0965
vt -15.4063 15.0859
vt -15.4817 15.0546
vt -15.5464 15.005
vt -15.5961 14.9403
vt -15.6273 14.8649
vt -15.6379 14.784
vt -15.6273 14.7031
vt -15.5961 14.6278
vt -15.5464 14.563
vt -15.4817 14.5134
f 55/195/3 53/196/3 51/197/3 49/42/3 48/44/3 47/7/3 46/6/3 44/9/3 45/83/3 83/93/3 82/94/3 81/95/3 79/198/3 77/199/3 75/200/3 73/201/3 71/202/3 69/203/3 67/204/3 65/205/3 63/206/3 61/207/3 59/208/3 57/209/3 

vt 21.0177 -5.68434e-014
vt 21.0993 -5.68434e-014
vn 0.707107 0 0.707107
f 36/210/20 38/211/44 43/191/44 37/190/20 

vt 21.1176 -5.68434e-014
vt 21.1992 -5.68434e-014
vn 0.5 0 0.866025
f 38/212/44 39/213/45 42/187/45 43/186/44 

vt 19.7757 -5.68434e-014
v 15.2446 -5.68434e-014 -15.0859
vt 19.8572 -5.68434e-014
vn 0.258819 0 0.965926
f 39/214/45 84/215/46 80/183/46 42/182/45 

f 39/95/3 40/96/3 84/198/3

v 15.3254 -5.68434e-014 -15.0965
f 84/198/3 40/96/3 85/199/3

v 15.5034 -5.68434e-014 -15.4481
vt -15.5034 15.4481
f 85/199/3 40/96/3 86/216/3

usemtl Color_H01
vt -13.3544 -5.68434e-014
vn 0.258819 0 -0.965926
vt -13.1749 -5.68434e-014
vt -13.1749 0.1875
v 15.5034 0.1875 -15.4481
vt -13.3544 0.1875
f 86/217/47 40/218/21 41/219/21 87/220/47 

vt 15.4063 15.0859
vt 15.5034 15.4481
f 41/103/12 76/221/12 87/222/12

vt 15.3254 15.0965
f 41/103/12 78/223/12 76/221/12

vt 15.2446 15.0859
f 41/103/12 80/224/12 78/223/12

f 41/103/12 42/102/12 80/224/12

usemtl FrontColor
vt 17.0832 -5.68434e-014
vt 17.1648 -5.68434e-014
vn 1.41375e-015 0 1
f 84/225/46 85/226/48 78/179/48 80/178/46 

vt 13.2238 -5.68434e-014
v 15.4063 -5.68434e-014 -15.0859
vt 13.3054 -5.68434e-014
f 85/227/48 88/228/9 76/175/9 78/174/48 

f 85/199/3 86/216/3 88/200/3

v 15.4817 -5.68434e-014 -15.0546
f 88/200/3 86/216/3 89/201/3

v 15.5464 -5.68434e-014 -15.005
f 89/201/3 86/216/3 90/202/3

v 15.6692 -5.68434e-014 -15.3794
vt -15.6692 15.3794
f 90/202/3 86/216/3 91/229/3

usemtl Color_H01
vt -8.591 -5.68434e-014
vn 0.5 0 -0.866025
vt -8.41153 -5.68434e-014
vt -8.41153 0.1875
v 15.6692 0.1875 -15.3794
vt -8.591 0.1875
f 91/230/49 86/231/47 87/232/47 92/233/49 

vt 15.5464 15.005
vt 15.6692 15.3794
f 87/222/12 72/234/12 92/235/12

vt 15.4817 15.0546
f 87/222/12 74/236/12 72/234/12

f 87/222/12 76/221/12 74/236/12

usemtl FrontColor
vt 8.46047 -5.68434e-014
vt 8.54205 -5.68434e-014
f 88/237/9 89/238/8 74/171/8 76/170/9 

vt 3.11776 -5.68434e-014
vt 3.19934 -5.68434e-014
f 89/239/8 90/240/7 72/167/7 74/166/8 

vt -2.4402 -5.68434e-014
v 15.5961 -5.68434e-014 -14.9403
vt -2.35862 -5.68434e-014
f 90/241/7 93/242/6 70/163/6 72/162/7 

f 90/202/3 91/229/3 93/203/3

v 15.6273 -5.68434e-014 -14.8649
f 93/203/3 91/229/3 94/204/3

v 15.6379 -5.68434e-014 -14.784
f 94/204/3 91/229/3 95/205/3

v 15.6692 -5.68434e-014 -14.1886
vt -15.6692 14.1886
f 96/243/3 95/205/3 91/229/3

v 15.6273 -5.68434e-014 -14.7031
f 96/243/3 97/206/3 95/205/3

v 15.5961 -5.68434e-014 -14.6278
f 96/243/3 98/207/3 97/206/3

v 15.5464 -5.68434e-014 -14.563
f 96/243/3 99/208/3 98/207/3

v 15.5034 -5.68434e-014 -14.1199
vt -15.5034 14.1199
f 100/244/3 99/208/3 96/243/3

v 15.4817 -5.68434e-014 -14.5134
f 100/244/3 101/209/3 99/208/3

v 15.4063 -5.68434e-014 -14.4822
f 100/244/3 102/195/3 101/209/3

f 22/43/3 102/195/3 100/244/3

v 15.3254 -5.68434e-014 -14.4715
f 22/43/3 103/196/3 102/195/3

v 15.2446 -5.68434e-014 -14.4822
f 22/43/3 104/197/3 103/196/3

f 22/43/3 24/42/3 104/197/3

vt -8.54205 -5.68434e-014
vt -8.46047 -5.68434e-014
f 104/245/47 24/246/49 50/123/49 52/122/47 

vt -3.19934 -5.68434e-014
vt -3.11776 -5.68434e-014
f 24/247/49 25/248/11 26/119/11 50/118/49 

usemtl Color_H01
vt 15.1692 14.5134
f 26/51/12 21/50/12 50/249/12

vt 15.3254 14.0965
f 50/249/12 21/50/12 23/250/12

vt 15.2446 14.4822
f 50/249/12 23/250/12 52/251/12

vt 15.3254 14.4715
f 52/251/12 23/250/12 54/252/12

v 15.5034 0.1875 -14.1199
vt 15.5034 14.1199
f 54/252/12 23/250/12 105/253/12

vt 17.0343 -5.68434e-014
vt 17.2138 -5.68434e-014
vt 17.2138 0.1875
vt 17.0343 0.1875
f 22/254/10 100/255/46 105/256/46 23/257/10 

vt 19.7267 -5.68434e-014
vt 19.9062 -5.68434e-014
v 15.6692 0.1875 -14.1886
vt 19.9062 0.1875
vt 19.7267 0.1875
f 100/258/46 96/259/45 106/260/45 105/261/46 

vt 21.0687 -5.68434e-014
v 15.8116 -5.68434e-014 -14.2979
vt 21.2482 -5.68434e-014
v 15.8116 0.1875 -14.2979
vt 21.2482 0.1875
vt 21.0687 0.1875
f 96/262/45 107/263/44 108/264/44 106/265/45 

usemtl FrontColor
v 15.8116 -5.68434e-014 -15.2701
vt -15.8116 15.2701
vt -15.8116 14.2979
f 96/243/3 109/266/3 107/267/3

f 96/243/3 91/229/3 109/266/3

usemtl Color_H01
vt -3.24829 -5.68434e-014
vt -3.06882 -5.68434e-014
vt -3.06882 0.1875
v 15.8116 0.1875 -15.2701
vt -3.24829 0.1875
f 109/268/11 91/269/49 92/270/49 110/271/11 

vt 15.8116 14.2979
vt 15.8116 15.2701
f 92/235/12 108/272/12 110/273/12

vt 15.6692 14.1886
f 92/235/12 106/274/12 108/272/12

vt 15.6379 14.784
f 92/235/12 66/275/12 106/274/12

vt 15.6273 14.8649
f 92/235/12 68/276/12 66/275/12

vt 15.5961 14.9403
f 92/235/12 70/277/12 68/276/12

f 92/235/12 72/234/12 70/277/12

usemtl FrontColor
vt -7.83464 -5.68434e-014
vt -7.75306 -5.68434e-014
f 93/278/6 94/279/5 68/159/5 70/158/6 

vt -12.6979 -5.68434e-014
vt -12.6164 -5.68434e-014
f 94/280/5 95/281/4 66/155/4 68/154/5 

vt -16.6987 -5.68434e-014
vt -16.6171 -5.68434e-014
f 95/282/4 97/283/13 64/151/13 66/150/4 

vt -19.5642 -5.68434e-014
vt -19.4826 -5.68434e-014
f 97/284/13 98/285/14 62/147/14 64/146/13 

vt -21.0993 -5.68434e-014
vt -21.0177 -5.68434e-014
f 98/286/14 99/287/15 60/143/15 62/142/14 

vt -21.1992 -5.68434e-014
vt -21.1176 -5.68434e-014
f 99/288/15 101/289/16 58/139/16 60/138/15 

vt -19.8572 -5.68434e-014
vt -19.7757 -5.68434e-014
f 101/290/16 102/291/17 56/135/17 58/134/16 

vt -17.1648 -5.68434e-014
vt -17.0832 -5.68434e-014
f 102/292/17 103/293/21 54/131/21 56/130/17 

vt -13.3054 -5.68434e-014
vt -13.2238 -5.68434e-014
f 103/294/21 104/295/47 52/127/47 54/126/21 

usemtl Color_H01
vt 15.4063 14.4822
f 54/252/12 105/253/12 56/296/12

vt 15.4817 14.5134
f 56/296/12 105/253/12 58/297/12

vt 15.5464 14.563
f 58/297/12 105/253/12 60/298/12

f 60/298/12 105/253/12 106/274/12

vt 15.5961 14.6278
f 60/298/12 106/274/12 62/299/12

vt 15.6273 14.7031
f 62/299/12 106/274/12 64/300/12

f 64/300/12 106/274/12 66/275/12

v 15.9208 0.1875 -14.4403
vt 15.9208 14.4403
f 110/273/12 108/272/12 111/301/12

vt 20.9687 -5.68434e-014
v 15.9208 -5.68434e-014 -14.4403
vt 21.1482 -5.68434e-014
vt 21.1482 0.1875
vt 20.9687 0.1875
f 107/302/44 112/303/20 111/304/20 108/305/44 

usemtl FrontColor
v 15.9208 -5.68434e-014 -15.1278
vt -15.9208 15.1278
vt -15.9208 14.4403
f 107/267/3 113/306/3 112/307/3

f 107/267/3 109/266/3 113/306/3

usemtl Color_H01
vt 2.30967 -5.68434e-014
vt 2.48914 -5.68434e-014
vt 2.48914 0.1875
v 15.9208 0.1875 -15.1278
vt 2.30967 0.1875
f 113/308/1 109/309/11 110/310/11 114/311/1 

vt 15.9208 15.1278
f 110/273/12 111/301/12 114/312/12

v 15.9895 0.1875 -14.6061
vt 15.9895 14.6061
f 114/312/12 111/301/12 115/313/12

vt 19.4337 -5.68434e-014
v 15.9895 -5.68434e-014 -14.6061
vt 19.6132 -5.68434e-014
vt 19.6132 0.1875
vt 19.4337 0.1875
f 112/314/20 116/315/19 115/316/19 111/317/20 

usemtl FrontColor
v 15.9895 -5.68434e-014 -14.9619
vt -15.9895 14.9619
vt -15.9895 14.6061
f 112/307/3 117/318/3 116/319/3

f 112/307/3 113/306/3 117/318/3

usemtl Color_H01
vt 7.70412 -5.68434e-014
vt 7.88359 -5.68434e-014
vt 7.88359 0.1875
v 15.9895 0.1875 -14.9619
vt 7.70412 0.1875
f 117/320/2 113/321/1 114/322/1 118/323/2 

vt 15.9895 14.9619
f 114/312/12 115/313/12 118/324/12

v 16.0129 0.1875 -14.784
vt 16.0129 14.784
f 118/324/12 115/313/12 119/325/12

vt 16.5682 -5.68434e-014
v 16.0129 -5.68434e-014 -14.784
vt 16.7476 -5.68434e-014
vn 1 0 -0
vt 16.7476 0.1875
vt 16.5682 0.1875
f 116/326/19 120/327/50 119/328/50 115/329/19 

usemtl FrontColor
vt -16.0129 14.784
f 116/319/3 117/318/3 120/330/3

usemtl Color_H01
vt 12.5674 -5.68434e-014
vt 12.7469 -5.68434e-014
vt 12.7469 0.1875
vt 12.5674 0.1875
f 120/331/50 117/332/2 118/333/2 119/334/50 

usemtl FrontColor
vt 12.6164 -5.68434e-014
vt 12.6979 -5.68434e-014
f 2/335/2 7/336/18 27/111/18 3/110/2 

