# Alias OBJ Model File
# Exported from SketchUp, (c) 2000-2012 Trimble Navigation Limited
# File units = inches

mtllib main stereo.mtl

g Mesh1 Model

usemtl Wood_Cherry_Original
v 0 4.5 -5.375
vt 0 0.5375
vn 0 1 -0
v 0 4.5 0.4375
vt 0 -0.04375
v 8.69693 4.5 0.4375
vt 0.869693 -0.04375
v 8.69693 4.5 -5.375
vt 0.869693 0.5375
f 1/1/1 2/2/1 3/3/1 4/4/1 

v 0 0 -5.375
vt -0.5375 0
vn -1 0 -0
v 0 0 0.4375
vt 0.04375 0
vt 0.04375 0.45
vt -0.5375 0.45
f 5/5/2 6/6/2 2/7/2 1/8/2 

usemtl FrontColor
v 8.69693 0 -5.375
vt -8.69693 5.375
vn 0 -1 -0
v 8.69693 0 0.4375
vt -8.69693 -0.4375
vt 0 -0.4375
vt 0 5.375
f 7/9/3 8/10/3 6/11/3 5/12/3 

usemtl Wood_Cherry_Original
vt -0.04375 0
vn 1 0 -0
vt 0.5375 0
vt 0.5375 0.45
vt -0.04375 0.45
f 8/13/4 7/14/4 4/15/4 3/16/4 

vt -0.869693 0
vn 0 0 -1
vt 0 0
vt 0 0.45
vt -0.869693 0.45
f 7/17/5 5/18/5 1/19/5 4/20/5 

usemtl _Wood_Cherry_Original_1
v 8.40558 0.387565 0.4375
vt 0.116744 0.00538285
vn 0 0 1
vt 0.120791 0
vt 0.120791 0.0625
f 9/21/6 8/22/6 3/23/6

f 8/22/6 9/21/6 6/18/6

v 0.343075 0.387565 0.4375
vt 0.00476493 0.00538285
f 10/24/6 6/18/6 9/21/6

vt 0 0.0625
f 6/18/6 10/24/6 2/25/6

v 0.343075 4.0675 0.4375
vt 0.00476493 0.056493
f 2/25/6 10/24/6 11/26/6

v 0.343075 0.387565 -0
vt 0 0.00538285
vn 1 -3.62036e-016 -0
v 0.343075 4.0675 -0
vt 0 0.056493
vt -0.00607639 0.056493
vt -0.00607639 0.00538285
f 12/27/7 13/28/7 11/29/7 10/30/7 

usemtl Aluminum
v 8.40558 0.387565 -0
vt 0.140093 0.00645942
v 8.40558 4.0675 -0
vt 0.140093 0.0677917
vt 0.00571792 0.0677917
vt 0.00571792 0.00645942
f 14/31/6 15/32/6 13/33/6 12/34/6 

usemtl _Wood_Cherry_Original_1
vt 0.00607639 0.00538285
v 8.40558 4.0675 0.4375
vt 0.00607639 0.056493
f 15/28/2 14/27/2 9/35/2 16/36/2 

vt 0.116744 0
vt 0.00476493 0
vt 0.00476493 -0.00607639
vt 0.116744 -0.00607639
f 14/37/1 12/38/1 10/39/1 9/40/1 

vt 0.116744 0.056493
f 9/21/6 3/23/6 16/41/6

v 8.40558 4.07507 0.4375
vt 0.116744 0.0565981
f 16/41/6 3/23/6 17/42/6

v 0.343075 4.07507 0.4375
vt 0.00476493 0.0565981
f 17/42/6 3/23/6 18/43/6

f 2/25/6 18/43/6 3/23/6

f 2/25/6 11/26/6 18/43/6

vn 1 1.7609e-013 -0
v 0.343075 4.07507 -0
vt 0 0.0565981
vt -0.00607639 0.0565981
f 13/28/8 19/44/8 18/45/8 11/29/8 

usemtl Aluminum
vt 0.00571792 0.0679178
v 8.40558 4.07507 -0
vt 0.140093 0.0679178
f 19/46/6 13/33/6 15/32/6 20/47/6 

usemtl _Wood_Cherry_Original_1
vt 0.00607639 0.0565981
f 20/44/2 15/28/2 16/36/2 17/48/2 

vt -0.00476493 0
vt -0.116744 0
vt -0.116744 -0.00607639
vt -0.00476493 -0.00607639
f 19/49/3 20/50/3 17/51/3 18/52/3 

