# Alias OBJ Model File
# Exported from SketchUp, (c) 2000-2012 Trimble Navigation Limited
# File units = inches

mtllib pause.mtl

g Mesh1 Model

usemtl FrontColor
v 9 0 -9
vt -9 9
vn 0 -1 -0
v 9 0 -0
vt -9 0
v 0 0 -0
vt 0 0
v 0 0 -9
vt 0 9
f 1/1/1 2/2/1 3/3/1 4/4/1 

usemtl Color_M09
vn 1 0 -0
vt 9 0
v 9 1.5 -9
vt 9 1.5
v 9 1.5 -0
vt 0 1.5
f 2/3/2 1/5/2 5/6/2 6/7/2 

vn 0 0 -1
v 0 1.5 -9
vt -9 1.5
f 1/2/3 4/3/3 7/7/3 5/8/3 

vn -1 0 -0
v 0 1.5 -0
f 4/2/4 3/3/4 8/7/4 7/8/4 

vn 0 0 1
f 3/3/5 2/5/5 6/6/5 8/7/5 

v 2.15076 1.5 -2.0478
vt 2.15076 2.0478
vn 0 1 -0
f 9/9/6 8/3/6 6/5/6

f 8/3/6 9/9/6 7/4/6

v 2.15076 1.5 -6.7978
vt 2.15076 6.7978
f 10/10/6 7/4/6 9/9/6

vt 9 9
f 7/4/6 10/10/6 5/11/6

v 3.65076 1.5 -6.7978
vt 3.65076 6.7978
f 5/11/6 10/10/6 11/12/6

usemtl Color_F06
vt -3.65076 1.5
vt -2.15076 1.5
v 2.15076 1.75 -6.7978
vt -2.15076 1.75
v 3.65076 1.75 -6.7978
vt -3.65076 1.75
f 11/13/3 10/14/3 12/15/3 13/16/3 

vt -6.7978 1.5
vt -2.0478 1.5
v 2.15076 1.75 -2.0478
vt -2.0478 1.75
vt -6.7978 1.75
f 10/17/4 9/18/4 14/19/4 12/20/4 

vt 2.15076 1.5
v 3.65076 1.5 -2.0478
vt 3.65076 1.5
v 3.65076 1.75 -2.0478
vt 3.65076 1.75
vt 2.15076 1.75
f 9/21/5 15/22/5 16/23/5 14/24/5 

usemtl Color_M09
vt 3.65076 2.0478
f 9/9/6 6/5/6 15/25/6

v 5.41614 1.5 -2.0478
vt 5.41614 2.0478
f 15/25/6 6/5/6 17/26/6

v 6.91614 1.5 -2.0478
vt 6.91614 2.0478
f 17/26/6 6/5/6 18/27/6

v 6.91614 1.5 -6.7978
vt 6.91614 6.7978
f 18/27/6 6/5/6 19/28/6

f 5/11/6 19/28/6 6/5/6

v 5.41614 1.5 -6.7978
vt 5.41614 6.7978
f 5/11/6 20/29/6 19/28/6

f 5/11/6 11/12/6 20/29/6

f 20/29/6 11/12/6 17/26/6

f 15/25/6 17/26/6 11/12/6

usemtl Color_F06
vt 2.0478 1.5
vt 6.7978 1.5
vt 6.7978 1.75
vt 2.0478 1.75
f 15/30/2 11/31/2 13/32/2 16/33/2 

f 13/12/6 12/10/6 14/9/6 16/25/6 

v 5.41614 1.75 -2.0478
v 5.41614 1.75 -6.7978
f 20/17/4 17/18/4 21/19/4 22/20/4 

vt 5.41614 1.5
vt 6.91614 1.5
v 6.91614 1.75 -2.0478
vt 6.91614 1.75
vt 5.41614 1.75
f 17/34/5 18/35/5 23/36/5 21/37/5 

v 6.91614 1.75 -6.7978
f 18/30/2 19/31/2 24/32/2 23/33/2 

vt -6.91614 1.5
vt -5.41614 1.5
vt -5.41614 1.75
vt -6.91614 1.75
f 19/38/3 20/39/3 22/40/3 24/41/3 

f 24/28/6 22/29/6 21/26/6 23/27/6 

