# Alias OBJ Model File
# Exported from SketchUp, (c) 2000-2012 Trimble Navigation Limited
# File units = inches

mtllib play.mtl

g Mesh1 Model

usemtl FrontColor
v 0 0 -0
vt 0 0
vn 0 -1 -0
v 0 0 -8.6875
vt 0 8.6875
v 8.6875 0 -8.6875
vt -8.6875 8.6875
v 8.6875 0 -0
vt -8.6875 0
f 1/1/1 2/2/1 3/3/1 4/4/1 

usemtl Color_M09
vn -1 0 -0
v 0 1.625 -0
vt 0 1.625
v 0 1.625 -8.6875
vt -8.6875 1.625
f 2/4/2 1/1/2 5/5/2 6/6/2 

vn 0 0 1
vt 8.6875 0
v 8.6875 1.625 -0
vt 8.6875 1.625
f 1/1/3 4/7/3 7/8/3 5/5/3 

vn 1 0 -0
v 8.6875 1.625 -8.6875
f 4/1/4 3/7/4 8/8/4 7/5/4 

vn 0 0 -1
f 3/4/5 2/1/5 6/5/5 8/6/5 

v 2.0356 1.625 -4.34375
vt 2.0356 4.34375
vn 0 1 -0
vt 8.6875 8.6875
f 9/9/6 8/10/6 6/2/6

v 6.24942 1.625 -6.39712
vt 6.24942 6.39712
f 8/10/6 9/9/6 10/11/6

usemtl Color_F06
vt -8.42019 1.625
vn -0.438052 0 -0.898949
vt -3.73269 1.625
v 2.0356 2.0625 -4.34375
vt -3.73269 2.0625
v 6.24942 2.0625 -6.39712
vt -8.42019 2.0625
f 10/12/7 9/13/7 11/14/7 12/15/7 

vt 0.327331 1.625
vn -0.361566 0 0.932347
v 6.24942 1.625 -2.70962
vt 4.84692 1.625
v 6.24942 2.0625 -2.70962
vt 4.84692 2.0625
vt 0.327331 2.0625
f 9/16/8 13/17/8 14/18/8 11/19/8 

usemtl Color_M09
vt 6.24942 2.70962
f 9/9/6 7/7/6 13/20/6

f 9/9/6 5/1/6 7/7/6

f 5/1/6 9/9/6 6/2/6

f 13/20/6 7/7/6 10/11/6

f 8/10/6 10/11/6 7/7/6

usemtl Color_F06
vt 2.70962 1.625
vt 6.39712 1.625
vt 6.39712 2.0625
vt 2.70962 2.0625
f 13/21/4 10/22/4 12/23/4 14/24/4 

f 11/9/6 14/20/6 12/11/6

