# Alias OBJ Model File
# Exported from SketchUp, (c) 2000-2012 Trimble Navigation Limited
# File units = inches

mtllib slider.mtl

g Mesh1 Model

usemtl FrontColor
v 0 0 -0
vt 0 0
vn 0 -1 -0
v 0 0 -3
vt 0 3
v 0.6875 0 -3
vt -0.6875 3
v 0.6875 0 -0
vt -0.6875 0
f 1/1/1 2/2/1 3/3/1 4/4/1 

usemtl Color_M09
v 0 0.1875 -0
vt 0 0.1875
vn -1 0 -0
v 0 0.1875 -1.5
vt -1.5 0.1875
v 0 0.1875 -1.84444
vt -1.84444 0.1875
v 0 0.1875 -3
vt -3 0.1875
vt -3 0
f 5/5/2 6/6/2 7/7/2 8/8/2 2/9/2 1/1/2 

v 0.6875 0.1875 -0
vt 0.6875 0
vn 0 1 -0
v 0.6875 0.1875 -1.5
vt 0.6875 1.5
vt 0 1.5
f 9/10/3 10/11/3 6/12/3 5/1/3 

v 0.6875 0.1875 -3
vt 3 0.1875
vn 1 0 -0
v 0.6875 0.1875 -1.84444
vt 1.84444 0.1875
vt 1.5 0.1875
vt 3 0
f 11/13/4 12/14/4 10/15/4 9/5/4 4/1/4 3/16/4 

vt 0 1.84444
vt 0.6875 1.84444
vt 0.6875 3
f 8/2/3 7/17/3 12/18/3 11/19/3 

usemtl Color_M06
vt -0.6875 0.1875
vn 0 0 -1
v 0 0.4375 -1.84444
vt 0 0.4375
v 0.6875 0.4375 -1.84444
vt -0.6875 0.4375
f 12/20/5 7/5/5 13/21/5 14/22/5 

usemtl FrontColor
f 7/17/3 6/12/3 10/11/3 12/18/3 

usemtl Color_M06
vt -1.84444 0.4375
v 0 0.4375 -1.5
vt -1.5 0.4375
f 13/23/2 7/7/2 6/6/2 15/24/2 

vn 0 0 1
vt 0.6875 0.1875
v 0.6875 0.4375 -1.5
vt 0.6875 0.4375
f 6/5/6 10/25/6 16/26/6 15/21/6 

vt 1.5 0.4375
vt 1.84444 0.4375
f 16/27/4 10/15/4 12/14/4 14/28/4 

f 13/17/3 15/12/3 16/11/3 14/18/3 

usemtl Color_M09
f 3/4/5 2/1/5 8/5/5 11/20/5 

f 1/1/6 4/10/6 9/25/6 5/5/6 

